<mxfile host="app.diagrams.net" modified="2020-11-19T23:25:06.364Z" agent="5.0 (Macintosh; Intel Mac OS X 10_15_6) AppleWebKit/537.36 (KHTML, like Gecko) Chrome/86.0.4240.198 Safari/537.36" etag="Aesh8YGUjAgp84pMQGuL" version="13.10.0" type="github">
  <diagram id="MlxEJMGc6Qe_grwrSPus" name="Page-1">
    <mxGraphModel dx="1039" dy="668" grid="1" gridSize="10" guides="1" tooltips="1" connect="1" arrows="1" fold="1" page="1" pageScale="1" pageWidth="850" pageHeight="1100" math="0" shadow="0">
      <root>
        <mxCell id="0" />
        <mxCell id="1" parent="0" />
        <mxCell id="71ctzH5ucimZ-1lSlwq9-1" value="" style="ellipse;whiteSpace=wrap;html=1;aspect=fixed;" vertex="1" parent="1">
          <mxGeometry x="520" y="100" width="80" height="80" as="geometry" />
        </mxCell>
        <mxCell id="71ctzH5ucimZ-1lSlwq9-2" value="" style="rounded=1;whiteSpace=wrap;html=1;" vertex="1" parent="1">
          <mxGeometry x="390" y="110" width="120" height="60" as="geometry" />
        </mxCell>
      </root>
    </mxGraphModel>
  </diagram>
</mxfile>
